<?xml version="1.0" encoding="utf-8"?>
<!DOCTYPE svg PUBLIC "-//W3C//DTD SVG 1.1//EN" "http://www.w3.org/Graphics/SVG/1.1/DTD/svg11.dtd">
<svg xmlns="http://www.w3.org/2000/svg" xmlns:xlink="http://www.w3.org/1999/xlink" version="1.1" baseProfile="full" width="5757.95" height="313.409" viewBox="0 0 5757.95 313.41" enable-background="new 0 0 5757.95 313.41" xml:space="preserve">
	<path fill="#2F6588" fill-opacity="1" stroke-width="0.2" stroke-linejoin="round" d="M 1277.11,92.8853L 1308.49,166.914L 1635.71,96.669L 1552.16,55.6547L 1408.27,7.35464L 1277.11,92.8853 Z "/>
	<path fill="#D8DFE3" fill-opacity="1" stroke-width="0.2" stroke-linejoin="round" d="M 1477.93,31.6197L 1569.67,71.6473L 1461.52,52.5009L 1408.66,7.86954L 1477.93,31.6197 Z "/>
	<path fill="#083B5E" fill-opacity="1" stroke-width="0.2" stroke-linejoin="round" d="M 1308.56,148.267L 1308.56,154.433L 1308.57,259.25L 3163.95,259.25L 3163.82,162.305L 2925.44,146.726L 2845.47,129.77L 2782.88,137.477L 2615.98,95.8588L 2501.23,128.229L 2355.19,145.184L 2125.7,105.107L 1889.25,115.897L 1680.62,148.267L 1427.71,126.468L 1308.56,148.267 Z "/>
	<path fill="#1277BD" fill-opacity="1" stroke-width="0.2" stroke-linejoin="round" d="M 3163.84,189.019L 3091.29,119.921L 2976.21,70.5652L 2775.64,110.05L 2746.71,148.991L 2788.78,168.991L 2969.59,200.307L 3119.1,203.787L 3163.84,235.766L 3163.84,189.019 Z M 1327.02,166.028L 1309.33,215.161L 1425.79,151.593L 1648.32,189.869L 1818.69,168.991L 1940.39,116.798L 1951.05,116.205L 1904.67,63.9848L 1766.24,24.5001L 1624.86,73.8558L 1516.35,113.34L 1457.17,73.8558L 1327.02,166.028 Z M 2296.07,75.1793L 2119.91,106.817L 2128.15,106.359L 2270.7,168.991L 2441.08,186.389L 2541.91,151.593L 2622.12,115.344L 2601.38,106.76L 2463.12,65.8986L 2296.07,75.1793 Z "/>
	<path fill="#042942" fill-opacity="1" stroke-width="0.2" stroke-linejoin="round" d="M 1308.48,241.237L 1417.2,182.909L 1455.48,224.664L 1765.15,282.684L 2759.19,252.87L 2840.63,200.307L 2865,235.103L 3073.81,242.062L 3163.84,250.457L 3163.84,103.469L 3133.64,47.8236L 2920.08,152.8L 2785.43,67.0462L 2604.65,32.2561L 2567.94,63.9846L 2488.98,152.8L 2186.18,93.5981L 2067.7,1.46725L 1899.86,60.6942L 1735.31,162.696L 1557.59,106.76L 1455.57,31.0807L 1409.35,71.0837L 1308.48,236.279"/>
	<path fill="#032B46" fill-opacity="1" stroke-width="0.2" stroke-linejoin="round" d="M 3216.95,248.624L 3325.67,190.297L 3363.95,232.052L 3433.56,221.613L 3576.25,263.368L 3673.7,235.532L 3754.53,214.737L 3725.23,253.298L 3785.07,245.97L 3934.72,172.899L 3857.67,243.251L 3986.92,155.501L 3899.92,249.45L 4028.69,145.062L 3944.66,247.891L 4053.05,259.889L 4059.86,262.577L 4352.35,239.011L 4502,148.542L 4391.23,246.731L 4559.79,252.138L 4667.66,260.258L 4749.1,207.695L 4773.47,242.491L 4982.28,249.45L 5072.31,257.844L 5072.31,110.857L 5042.11,55.2111L 4828.55,160.188L 4693.91,74.4338L 4513.12,39.6436L 4476.41,71.3722L 4397.45,160.188L 4094.65,100.986L 3976.17,8.8548L 3749.01,81.3706L 3643.78,170.084L 3466.06,114.147L 3364.04,38.4682L 3278.47,91.1144L 3217.18,154.345"/>
	<path fill="#032B46" fill-opacity="1" stroke-width="0.2" stroke-linejoin="round" d="M 72.3306,77.1284L 58.4128,39.6436L 21.7051,71.3722"/>
	<g>
		<path fill="#FFFFFF" fill-opacity="1" stroke-width="0.2" stroke-linejoin="round" d="M 2852.86,107.955L 2893.6,135.213L 2933.17,88.7846L 2852.86,107.955 Z "/>
		<path fill="#D8DFE3" fill-opacity="1" stroke-width="0.2" stroke-linejoin="round" d="M 1562.89,113.704L 1690.44,109.625L 1701.41,81.1067L 1716.77,85.4941L 1725.54,62.4603L 1758.45,39.4264L 1562.89,113.704 Z "/>
	</g>
	<g>
		<path fill="#0E5A8F" fill-opacity="1" stroke-width="0.2" stroke-linejoin="round" d="M 2488.06,149.892L 2395.92,189.379L 2209.46,239.834L 2413.47,215.703L 2488.06,149.892 Z "/>
		<path fill="#A4C3D9" fill-opacity="1" stroke-width="0.2" stroke-linejoin="round" d="M 1729.04,163.054L 1740,160.861L 1669.81,171.829L 1560.12,200.347L 1663.23,193.766L 1729.04,163.054 Z "/>
		<path fill="#0E5A8F" fill-opacity="1" stroke-width="0.2" stroke-linejoin="round" d="M 2102.45,66.908L 2067.12,0.922272L 1848.34,207.935L 1938.15,140.379L 2102.45,66.908 Z "/>
		<path fill="#0E5A8F" fill-opacity="1" stroke-width="0.2" stroke-linejoin="round" d="M 2921.47,153.133L 3020.92,188.964L 3130.6,207.244L 2995.33,199.932L 2921.47,153.133 Z "/>
	</g>
	<path fill="#D8DFE3" fill-opacity="1" stroke-width="0.2" stroke-linejoin="round" d="M 2066.85,0.000152588L 2145.83,57.0363L 2199.94,95.0604L 2069.78,81.8982L 2080.45,51.5779L 2058.46,16.5855L 2066.85,0.000152588 Z "/>
	<path fill="#D8DFE3" fill-opacity="1" stroke-width="0.2" stroke-linejoin="round" d="M 2659.17,60.0982L 2785.29,66.1768L 2970.47,184.572L 2886.2,144.053L 2823.68,124.31L 2789.68,119.922L 2750.19,142.956L 2697.54,130.891L 2687.67,53.0147L 2637.21,47.5304L 2659.17,60.0982 Z "/>
	<path fill="#D8DFE3" fill-opacity="1" stroke-width="0.2" stroke-linejoin="round" d="M 3133.53,47.9561L 3178.39,79.3592L 3188.43,99.9272L 3138.94,94.443L 3133.53,47.9561 Z "/>
	<path fill="#D8DFE3" fill-opacity="1" stroke-width="0.2" stroke-linejoin="round" d="M 2462.66,65.2801L 2534.02,86.4818L 2517.56,117.251L 2470.14,119.583L 2462.66,65.2801 Z "/>
	<path fill="#D8DFE3" fill-opacity="1" stroke-width="0.2" stroke-linejoin="round" d="M 3977.52,9.72034L 4053.95,68.1374L 4064.71,90.1739L 4011.68,84.2981L 3977.52,9.72034 Z "/>
	<path fill="#D8DFE3" fill-opacity="1" stroke-width="0.2" stroke-linejoin="round" d="M 4512.56,39.2205L 4581.95,49.8163L 4593.94,114.313L 4544.45,108.829L 4512.56,39.2205 Z "/>
	<path fill="#D8DFE3" fill-opacity="1" stroke-width="0.2" stroke-linejoin="round" d="M 57.8521,39.2205L 127.241,49.8163L 139.233,114.313L 89.7397,108.829L 57.8521,39.2205 Z "/>
	<path fill="#FFFFFF" fill-opacity="1" stroke-width="0.2" stroke-linejoin="round" d="M 1455.59,31.5436L 1550.6,100.545L 1676.19,145.085L 1541.83,123.944L 1503.8,97.6199L 1417.24,182.605L 1455.59,31.5436 Z "/>
	<path fill="#083B5E" fill-opacity="1" stroke-width="0.2" stroke-linejoin="round" d="M 3907.81,148.267L 3907.81,154.433L 3907.81,259.25L 5757.84,259.009L 5757.84,162.28L 5524.69,146.726L 5444.71,129.77L 5382.13,137.477L 5215.22,95.8588L 5100.47,128.229L 4954.43,145.184L 4724.94,105.107L 4488.49,115.897L 4279.86,148.267L 4022.55,117.439L 3907.81,148.267 Z "/>
	<path fill="#1277BD" fill-opacity="1" stroke-width="0.2" stroke-linejoin="round" d="M 5757.84,189.274L 5690.53,119.921L 5575.46,70.5652L 5374.89,110.05L 5345.95,148.991L 5388.03,168.991L 5568.83,200.307L 5718.35,203.787L 5757.84,236.264L 5757.84,189.274 Z M 3926.27,166.028L 3908.58,215.161L 4025.04,151.593L 4247.57,189.869L 4417.94,168.991L 4539.64,116.798L 4550.3,116.205L 4503.92,63.9848L 4365.48,24.5001L 4224.1,73.8558L 4115.6,113.34L 4056.42,73.8558L 3926.27,166.028 Z M 4904.71,44.2422L 4719.16,106.817L 4727.39,106.359L 4869.95,168.991L 5040.33,186.389L 5141.16,151.593L 5221.37,115.344L 5200.63,106.76L 5062.53,21.2097L 4904.71,44.2422 Z "/>
	<path fill="#245170" fill-opacity="1" stroke-width="0.2" stroke-linejoin="round" d="M 3907.73,241.237L 4016.45,182.909L 4054.73,224.664L 4123.84,232.863L 4267.03,255.981L 4364.47,228.144L 4445.31,207.349L 4416,245.911L 4475.84,238.583L 4625.5,165.511L 4548.45,235.864L 4677.7,148.114L 4590.69,242.062L 4719.46,137.675L 4635.44,240.503L 4743.82,252.501L 4750.64,255.19L 5043.13,231.624L 5192.78,141.154L 5082.01,239.343L 5250.56,244.751L 5358.44,252.87L 5439.88,200.307L 5464.24,235.103L 5673.06,242.062L 5757.84,251.01L 5757.84,102.542L 5697.05,70.5654L 5519.33,152.8L 5384.68,67.0462L 5246.17,21.2097L 5167.19,63.9846L 5088.23,152.8L 4785.43,93.5981L 4666.95,1.46725L 4499.11,60.6942L 4334.55,162.696L 4156.84,106.76L 4054.82,31.0807L 3969.25,83.7268L 3907.96,146.957"/>
	<path fill="#FFFFFF" fill-opacity="1" stroke-width="0.2" stroke-linejoin="round" d="M 5439.68,111.359L 5492.85,135.213L 5532.42,88.7846L 5439.68,111.359 Z "/>
	<path fill="#FFFFFF" fill-opacity="1" stroke-width="0.2" stroke-linejoin="round" d="M 4993.83,39.4403L 4998.22,39.4403L 4959.83,53.6993L 4930.54,94.1223L 4944.92,124.597L 4810.2,98.3527L 4906.08,49.3119L 4993.83,39.4403 Z "/>
	<path fill="#FFFFFF" fill-opacity="1" stroke-width="0.2" stroke-linejoin="round" d="M 4162.13,113.704L 4289.69,109.625L 4300.66,81.1067L 4316.01,85.4941L 4324.79,62.4603L 4357.69,39.4264L 4162.13,113.704 Z "/>
	<path fill="#375D77" fill-opacity="1" stroke-width="0.2" stroke-linejoin="round" d="M 5087.64,154.257L 4995.17,189.379L 4808.7,239.834L 5012.72,215.703L 5087.64,154.257 Z "/>
	<path fill="#559DCE" fill-opacity="1" stroke-width="0.2" stroke-linejoin="round" d="M 4328.28,163.054L 4339.25,160.861L 4269.05,171.829L 4159.37,200.347L 4262.47,193.766L 4328.28,163.054 Z "/>
	<path fill="#0E5A8F" fill-opacity="1" stroke-width="0.2" stroke-linejoin="round" d="M 4617.46,100.892L 4534.1,122.829L 4493.81,177.591L 4537.39,140.379L 4617.46,100.892 Z "/>
	<path fill="#0E5A8F" fill-opacity="1" stroke-width="0.2" stroke-linejoin="round" d="M 5519.71,152.62L 5620.17,188.964L 5729.85,207.244L 5594.57,199.932L 5519.71,152.62 Z "/>
	<path fill="#D8DFE3" fill-opacity="1" stroke-width="0.2" stroke-linejoin="round" d="M 4666.1,0L 4745.07,57.0362L 4810.12,98.2471L 4669.02,81.8981L 4619.3,99.4477L 4601.75,71.6608L 4666.1,0 Z "/>
	<path fill="#D8DFE3" fill-opacity="1" stroke-width="0.2" stroke-linejoin="round" d="M 5248.53,22.3029L 5384.54,66.1768L 5570.26,184.457L 5485.45,144.053L 5422.93,124.31L 5388.92,119.922L 5349.44,142.956L 5296.79,130.891L 5286.92,53.0147L 5236.46,47.5304L 5248.53,22.3029 Z "/>
	<path fill="#D8DFE3" fill-opacity="1" stroke-width="0.2" stroke-linejoin="round" d="M 5697.14,70.5642L 5745.55,131.741L 5757.84,129.037L 5757.84,237.013L 5697.14,70.5642 Z "/>
	<path fill="#D8DFE3" fill-opacity="1" stroke-width="0.2" stroke-linejoin="round" d="M 4054.84,31.5436L 4149.85,100.545L 4275.44,145.085L 4141.07,123.944L 4117.84,90.3937L 4014.87,70.8981L 4054.84,31.5436 Z "/>
	<path fill="#083B5E" fill-opacity="1" stroke-width="0.2" stroke-linejoin="round" d="M 0.0922852,119.334L 0.0925293,259.303L 1308.48,259.25L 1308.36,162.305L 1069.98,146.726L 990.006,129.77L 927.417,137.477L 760.513,95.8588L 645.766,128.229L 499.726,145.184L 270.232,105.107L 33.7854,115.897L 0.0922852,119.334 Z "/>
	<path fill="#1277BD" fill-opacity="1" stroke-width="0.2" stroke-linejoin="round" d="M 1308.37,189.019L 1235.83,119.921L 1120.75,70.5652L 920.181,110.05L 891.246,148.991L 933.32,168.991L 1114.13,200.307L 1263.64,203.787L 1308.37,235.766L 1308.37,189.019 Z M 0.0922852,49.3456L 0.0922852,88.8368L 42.7581,62.3427L 0.0922852,49.3456 Z M 450.002,44.2422L 264.452,106.817L 272.686,106.359L 415.244,168.991L 585.618,186.389L 686.451,151.593L 766.659,115.344L 745.919,106.76L 607.824,21.2097L 450.002,44.2422 Z "/>
	<path fill="#002C49" fill-opacity="1" stroke-width="0.2" stroke-linejoin="round" d="M 0.0917969,243.921L 1314.92,263.188L 1370.91,136.216L 1242.34,70.5654L 1064.62,152.8L 929.973,67.0462L 791.466,21.2097L 712.481,63.9846L 633.517,152.8L 330.719,93.5981L 212.241,1.46725L 44.3982,60.6942L 0.0917969,88.3724"/>
	<path fill="#FFFFFF" fill-opacity="1" stroke-width="0.2" stroke-linejoin="round" d="M 991.293,109.847L 1039.95,139.174L 1077.71,88.7846L 991.293,109.847 Z "/>
	<path fill="#FFFFFF" fill-opacity="1" stroke-width="0.2" stroke-linejoin="round" d="M 539.119,39.4403L 543.506,39.4403L 505.116,53.6993L 475.83,94.1223L 631.936,152.481L 355.306,98.4749L 451.371,49.3119L 539.119,39.4403 Z "/>
	<path fill="#1C6EA8" fill-opacity="1" stroke-width="0.2" stroke-linejoin="round" d="M 633.454,153.046L 540.459,189.379L 353.995,239.834L 558.009,215.703L 633.454,153.046 Z "/>
	<path fill="#0E5A8F" fill-opacity="1" stroke-width="0.2" stroke-linejoin="round" d="M 162.753,100.892L 79.3931,122.829L 39.1033,177.591L 82.6836,140.379L 162.753,100.892 Z "/>
	<path fill="#0E5A8F" fill-opacity="1" stroke-width="0.2" stroke-linejoin="round" d="M 1066.01,153.133L 1165.46,188.964L 1291.9,250.903L 1139.86,199.932L 1066.01,153.133 Z "/>
	<path fill="#D8DFE3" fill-opacity="1" stroke-width="0.2" stroke-linejoin="round" d="M 211.393,0L 290.366,57.0362L 355.412,98.2471L 212.606,80.3611L 164.848,99.558L 147.044,71.6608L 211.393,0 Z "/>
	<path fill="#D8DFE3" fill-opacity="1" stroke-width="0.2" stroke-linejoin="round" d="M 793.818,22.3029L 929.827,66.1768L 1139.14,199.494L 951.546,89.6771L 968.217,124.31L 907.463,90.1411L 893.077,113.343L 842.079,130.891L 832.207,53.0147L 751.548,77.6123L 793.818,22.3029 Z "/>
	<path fill="#D8DFE3" fill-opacity="1" stroke-width="0.2" stroke-linejoin="round" d="M 1242.43,70.5642L 1290.84,131.741L 1370.36,135.879L 1329.53,229.15L 1242.43,70.5642 Z "/>
	<path fill="#083B5E" fill-opacity="1" stroke-width="0.2" stroke-linejoin="round" d="M 2213.59,163.378L 2165.27,193.372L 2166.89,240.662L 4080.76,251.864L 4080.64,159.301L 3836.4,144.427L 3754.47,128.237L 3690.34,135.596L 3519.34,95.8589L 3401.78,126.766L 3252.15,142.955L 3017.03,104.689L 2774.77,114.992L 2561.02,145.898L 2297.4,116.463L 2213.59,163.378 Z "/>
	<path fill="#1277BD" fill-opacity="1" stroke-width="0.2" stroke-linejoin="round" d="M 4080.65,189.019L 4008.1,119.921L 3893.02,70.5656L 3692.46,110.05L 3663.52,148.991L 3705.6,168.991L 3886.4,200.308L 4035.92,203.787L 4080.65,235.766L 4080.65,189.019 Z M 2243.84,166.029L 2226.15,215.162L 2342.61,151.594L 2565.14,189.869L 2735.51,168.992L 2857.21,116.798L 2867.87,116.205L 2821.49,63.9852L 2683.05,24.5004L 2541.67,73.8562L 2433.17,113.341L 2373.99,73.8562L 2243.84,166.029 Z M 3222.28,44.2426L 3036.73,106.817L 3044.96,106.359L 3187.52,168.992L 3357.9,186.39L 3458.73,151.594L 3538.94,115.344L 3518.2,106.76L 3380.1,21.21L 3222.28,44.2426 Z "/>
	<path fill="#083B5E" fill-opacity="1" stroke-width="0.2" stroke-linejoin="round" d="M 2224.38,241.737L 2333.1,183.41L 2371.38,225.165L 2440.98,214.726L 2583.68,256.481L 2681.12,228.644L 2795.29,196.456L 2732.65,246.411L 2792.49,239.083L 2942.15,166.012L 2865.1,236.364L 2994.35,148.614L 2981.01,172.159L 3036.11,138.175L 2952.09,241.004L 3060.47,253.001L 3161.16,255.349L 3359.78,232.124L 3598.23,138.805L 3398.66,239.844L 3567.21,245.251L 3675.63,260.098L 3756.53,200.808L 3780.89,235.603L 3989.71,242.563L 4123.34,218.866L 4080.35,128.885L 4013.7,71.0658L 3835.98,153.3L 3701.33,67.5466L 3573.49,25.4521L 3483.84,64.485L 3402.87,152.499L 3102.08,94.0984L 2983.6,1.96759L 2815.76,61.1946L 2651.21,163.196L 2473.49,107.26L 2371.47,31.581L 2285.9,84.2272L 2132.94,191.039"/>
	<path fill="#FFFFFF" fill-opacity="1" stroke-width="0.2" stroke-linejoin="round" d="M 3765.25,111.172L 3810.42,135.213L 3849.99,88.7846L 3765.25,111.172 Z "/>
	<path fill="#FFFFFF" fill-opacity="1" stroke-width="0.2" stroke-linejoin="round" d="M 3311.39,39.4403L 3315.78,39.4403L 3277.39,53.6993L 3269.71,90.9922L 3211.61,115.638L 3125.39,97.0789L 3223.65,49.3119L 3311.39,39.4403 Z "/>
	<path fill="#FFFFFF" fill-opacity="1" stroke-width="0.2" stroke-linejoin="round" d="M 2479.7,113.704L 2607.26,109.625L 2623.22,119.645L 2633.58,85.4941L 2642.35,62.4603L 2675.26,39.4264L 2479.7,113.704 Z "/>
	<path fill="#9CBCD2" fill-opacity="1" stroke-width="0.2" stroke-linejoin="round" d="M 3405.52,152.795L 3326.33,202.514L 3068.33,255.723L 3330.28,215.703L 3405.52,152.795 Z "/>
	<path fill="#7691A4" fill-opacity="1" stroke-width="0.2" stroke-linejoin="round" d="M 2630.79,169.628L 2651.03,163.046L 2586.62,171.829L 2361.06,213.534L 2580.04,193.766L 2630.79,169.628 Z "/>
	<path fill="#0E5A8F" fill-opacity="1" stroke-width="0.2" stroke-linejoin="round" d="M 2986.73,81.9884L 2851.67,122.829L 2800.12,191.931L 2854.96,140.379L 2986.73,81.9884 Z "/>
	<path fill="#0E5A8F" fill-opacity="1" stroke-width="0.2" stroke-linejoin="round" d="M 3838.29,153.133L 3937.73,188.964L 4047.42,207.244L 3912.14,199.932L 3838.29,153.133 Z "/>
	<path fill="#D8DFE3" fill-opacity="1" stroke-width="0.2" stroke-linejoin="round" d="M 2983.67,0.000152588L 3062.64,57.0363L 3116.75,95.0604L 2986.59,81.8982L 2852.45,122.011L 2955.41,73.868L 2983.67,0.000152588 Z "/>
	<path fill="#D8DFE3" fill-opacity="1" stroke-width="0.2" stroke-linejoin="round" d="M 3574.5,24.8553L 3702.1,66.1768L 3887.29,184.572L 3803.01,144.053L 3740.49,124.31L 3716.8,140.187L 3679.68,116.985L 3614.36,130.891L 3669.63,76.0916L 3529.93,74.8347L 3574.5,24.8553 Z "/>
	<path fill="#D8DFE3" fill-opacity="1" stroke-width="0.2" stroke-linejoin="round" d="M 4013.87,72.3977L 4070.61,108.129L 4080.65,128.697L 4031.16,123.213L 4013.87,72.3977 Z "/>
	<path fill="#D8DFE3" fill-opacity="1" stroke-width="0.2" stroke-linejoin="round" d="M 2372.41,31.5436L 2467.42,100.545L 2593.01,145.085L 2458.64,123.944L 2420.62,97.6199L 2324.09,104.932L 2372.41,31.5436 Z "/>
	<path fill="#042942" fill-opacity="1" stroke-width="0.2" stroke-linejoin="round" d="M 5757.84,253.51L 5757.84,253.26L 5673.06,245.02L 5464.24,238.061L 5439.88,203.265L 5358.44,255.828L 5082.01,242.301L 5192.78,144.112L 5013.66,215.577L 4812.7,238.906L 4743.83,255.459L 4635.44,243.461L 4719.46,140.633L 4590.69,245.02L 4677.7,151.071L 4598.42,200.247L 4625.5,168.469L 4416,248.868L 4445.31,210.307L 4234.47,249.412L 4124.33,217.183L 4090.45,222.265L 4047.03,207.835L 3933.65,230.29L 3781.81,238.061L 3757.45,203.265L 3678.78,254.797L 3399.58,242.301L 3603.79,138.769L 3360.7,234.581L 3227.31,245.328L 3329.95,215.982L 3190.32,236.853L 3073.81,245.02L 2954.97,241.059L 3037.03,140.633L 2946.06,203.843L 2860.93,232.254L 2860.7,231.922L 2919.15,204.771L 2733.57,248.868L 2797.62,195.123L 2611.33,248.445L 2499.35,233.993L 2579.22,193.99L 2372.3,227.622L 2358.43,213.903L 2239.37,251.059L 2151.39,258.147L 2230.26,164.715L 2235.54,147.584L 2001.78,242.274L 2067.02,170.973L 2037.9,194.401L 2085.82,138.027L 1794.35,250.812L 1507.89,244.006L 1564.19,199.459L 1397.76,232.869L 1417.2,185.867L 1290.9,252.569L 1218.35,245.02L 1009.53,238.061L 985.173,203.265L 903.728,255.828L 627.301,242.301L 738.073,144.112L 588.421,234.581L 295.931,258.147L 228.848,256.319L 180.732,243.461L 264.754,140.633L 187.023,198.998L 222.991,151.071L 93.7385,238.821L 170.787,168.469L 21.1348,241.54L 0.000976563,244.128L 0,313.409L 5757.95,312.826L 5757.84,260.008M 2925.44,149.684L 2903.11,144.95L 2909.76,167.47L 2979.39,124.677L 2925.44,149.684 Z M 5558.07,144.081L 5520.46,152.591L 5536.76,158.932L 5563.4,148.747L 5558.07,144.081 Z M 3879.72,124.336L 3823.12,143.457L 3838.05,152.955L 3896.16,125.899L 3879.72,124.336 Z "/>
	<path fill="#032B46" fill-opacity="1" stroke-width="0.2" stroke-linejoin="round" d="M 181.515,243.535L 227.505,256.532L 297.49,258.282L 230.754,228.788L 263.997,141.557L 181.515,243.535 Z "/>
	<path fill="#032B46" fill-opacity="1" stroke-width="0.2" stroke-linejoin="round" d="M 1009.56,238.494L 1068.92,254.49L 1217.64,244.742L 1020.68,233.745L 985.688,203.251L 1009.56,238.494 Z "/>
	<path fill="#073D62" fill-opacity="1" stroke-width="0.2" stroke-linejoin="round" d="M 1508.66,243.493L 1624.47,246.825L 1576.81,237.328L 1578.56,221.748L 1563.31,200.502L 1508.66,243.493 Z "/>
	<path fill="#032B46" fill-opacity="1" stroke-width="0.2" stroke-linejoin="round" d="M 2151.52,257.823L 2239.33,250.991L 2216.84,224.997L 2190.84,231.162L 2229.83,165.177L 2151.52,257.823 Z "/>
	<path fill="#032B46" fill-opacity="1" stroke-width="0.2" stroke-linejoin="round" d="M 2953.32,241.75L 3067.96,246.582L 3148.94,239.583L 3032.18,200.769L 3031.66,147.181L 2953.32,241.75 Z "/>
	<path fill="#032B46" fill-opacity="1" stroke-width="0.2" stroke-linejoin="round" d="M 5359.39,255.697L 5080.69,242.75L 5192.17,144.271L 5180.87,215.752L 5359.39,255.697 Z "/>
	<path fill="#032B46" fill-opacity="1" stroke-width="0.2" stroke-linejoin="round" d="M 5669.1,244.413L 5464.48,238.747L 5439.48,204.421L 5536.8,215.752L 5669.1,244.413 Z "/>
	<path fill="#032B46" fill-opacity="1" stroke-width="0.2" stroke-linejoin="round" d="M 4744.63,255.577L 4636.32,243.746L 4688.31,177.927L 4670.98,226.25L 4744.63,255.577 Z "/>
	<path fill="#032B46" fill-opacity="1" stroke-width="0.2" stroke-linejoin="round" d="M 3678.78,255.13L 3399.76,241.913L 3600.03,139.449L 3596.62,217.438L 3678.78,255.13 Z "/>
	<path fill="#021D2F" fill-opacity="1" stroke-width="0.2" stroke-linejoin="round" d="M 827.544,152.14L 805.049,190.132L 834.543,194.631L 767.557,209.128L 827.544,152.14 Z "/>
	<path fill="#032B46" fill-opacity="1" stroke-width="0.2" stroke-linejoin="round" d="M 627.619,242.028L 705.102,247.027L 904.059,256.025L 682.607,224.033L 737.429,144.133L 627.619,242.028 Z "/>
</svg>
