<?xml version="1.0" encoding="utf-8"?>
<!DOCTYPE svg PUBLIC "-//W3C//DTD SVG 1.1//EN" "http://www.w3.org/Graphics/SVG/1.1/DTD/svg11.dtd">
<svg xmlns="http://www.w3.org/2000/svg" xmlns:xlink="http://www.w3.org/1999/xlink" version="1.1" baseProfile="full" width="546.484" height="546.253" viewBox="0 0 546.48 546.25" enable-background="new 0 0 546.48 546.25" xml:space="preserve">
	<g>
		<path fill="#B20303" fill-opacity="1" stroke-width="0.2" stroke-linejoin="round" d="M 273.113,-9.15527e-005C 423.948,-9.15527e-005 546.225,122.277 546.225,273.113C 546.225,348.676 515.538,417.072 465.946,466.518L 430.007,467.757L 347.438,420.121L 160.07,372.485L 55.2708,436L 55.197,437.769C 20.5515,391.989 0,334.951 0,273.113C 0,122.277 122.277,-9.15527e-005 273.113,-9.15527e-005 Z "/>
		<path fill="#B20303" fill-opacity="1" stroke-width="0.2" stroke-linejoin="round" d="M 466.491,466.26C 359.835,572.917 186.909,572.917 80.252,466.26C 26.8206,412.829 0.156372,342.767 0.259521,272.736L 24.7964,246.447L 116.865,221.746L 283.038,122.94L 312.23,3.92441L 311.032,2.62143C 367.901,10.4949 422.765,36.2946 466.491,80.0207C 573.149,186.678 573.149,359.603 466.491,466.26 Z "/>
	</g>
	<path fill="#FFFF00" fill-opacity="1" stroke-width="0.2" stroke-linejoin="round" d="M 373.514,373.399C 318.136,428.777 228.349,428.777 172.97,373.398C 117.591,318.02 117.591,228.233 172.97,172.854C 228.349,117.475 318.135,117.475 373.514,172.854C 428.893,228.233 428.893,318.02 373.514,373.399 Z "/>
</svg>
